<svg width="512" height="512" viewBox="0 0 512 512" fill="none" xmlns="http://www.w3.org/2000/svg">
  <defs>
    <linearGradient id="beaconGradient" x1="126" y1="100" x2="386" y2="412" gradientUnits="userSpaceOnUse">
      <stop stop-color="#6366F1"/>
      <stop offset="1" stop-color="#4338CA"/>
    </linearGradient>
  </defs>

  <!-- Main beacon / saved-location shape -->
  <path
    d="M256 72C165.4 72 92 142.2 92 228.8C92 340.2 213.5 426.5 245.2 447.3C251.7 451.6 260.3 451.6 266.8 447.3C298.5 426.5 420 340.2 420 228.8C420 142.2 346.6 72 256 72Z"
    fill="url(#beaconGradient)"
  />

  <!-- Nest / anchor cradle -->
  <path
    d="M170 296C193.5 325.3 222.2 340 256 340C289.8 340 318.5 325.3 342 296"
    stroke="white"
    stroke-width="24"
    stroke-linecap="round"
  />
  <path
    d="M197 272C213.2 288 232.9 296 256 296C279.1 296 298.8 288 315 272"
    stroke="white"
    stroke-width="18"
    stroke-linecap="round"
    opacity="0.72"
  />

  <!-- Exact anchor point -->
  <circle cx="256" cy="220" r="48" fill="white"/>
  <circle cx="256" cy="220" r="20" fill="#2DD4BF"/>

  <!-- Live beacon signal -->
  <path
    d="M331 138C355.8 154.4 372.2 182.6 372.2 214.6"
    stroke="#2DD4BF"
    stroke-width="20"
    stroke-linecap="round"
  />
  <path
    d="M343 102C382.2 127.4 408 171.6 408 222"
    stroke="#2DD4BF"
    stroke-width="20"
    stroke-linecap="round"
    opacity="0.68"
  />
</svg>
